<?xml version="1.0" encoding="UTF-8" standalone="no"?>
<!-- Created with Inkscape (http://www.inkscape.org/) -->

<svg
   xmlns:dc="http://purl.org/dc/elements/1.1/"
   xmlns:cc="http://creativecommons.org/ns#"
   xmlns:rdf="http://www.w3.org/1999/02/22-rdf-syntax-ns#"
   xmlns:svg="http://www.w3.org/2000/svg"
   xmlns="http://www.w3.org/2000/svg"
   xmlns:xlink="http://www.w3.org/1999/xlink"
   xmlns:sodipodi="http://sodipodi.sourceforge.net/DTD/sodipodi-0.dtd"
   xmlns:inkscape="http://www.inkscape.org/namespaces/inkscape"
   width="8.5in"
   height="11in"
   viewBox="0 0 215.9 279.40001"
   version="1.1"
   id="svg8"
   inkscape:version="0.92.1 r15371"
   sodipodi:docname="flowers.svg">
  <defs
     id="defs2">
    <linearGradient
       inkscape:collect="always"
       id="linearGradient4524">
      <stop
         style="stop-color:#ffcc00;stop-opacity:1"
         offset="0"
         id="stop4520" />
      <stop
         style="stop-color:#ff7f2a;stop-opacity:1"
         offset="1"
         id="stop4522" />
    </linearGradient>
    <filter
       inkscape:collect="always"
       style="color-interpolation-filters:sRGB"
       id="filter4754"
       x="-0.059970043"
       width="1.1199401"
       y="-0.060029987"
       height="1.12006">
      <feGaussianBlur
         inkscape:collect="always"
         stdDeviation="4.6654733"
         id="feGaussianBlur4756" />
    </filter>
    <clipPath
       clipPathUnits="userSpaceOnUse"
       id="clipPath5595">
      <use
         x="0"
         y="0"
         xlink:href="#g5591"
         id="use5597"
         width="100%"
         height="100%" />
    </clipPath>
    <radialGradient
       inkscape:collect="always"
       xlink:href="#linearGradient4524"
       id="radialGradient5611"
       gradientUnits="userSpaceOnUse"
       gradientTransform="matrix(0.26458333,0,0,0.26458333,232.12747,-67.198851)"
       cx="253.28321"
       cy="883.2168"
       fx="253.28321"
       fy="883.2168"
       r="332.53321" />
    <radialGradient
       inkscape:collect="always"
       xlink:href="#linearGradient4524"
       id="radialGradient5613"
       gradientUnits="userSpaceOnUse"
       gradientTransform="matrix(0.26458333,0,0,0.26458333,232.12747,-67.198851)"
       cx="253.28321"
       cy="883.2168"
       fx="253.28321"
       fy="883.2168"
       r="332.53321" />
    <radialGradient
       inkscape:collect="always"
       xlink:href="#linearGradient4524"
       id="radialGradient5615"
       gradientUnits="userSpaceOnUse"
       gradientTransform="matrix(0.26458333,0,0,0.26458333,232.12747,-67.198851)"
       cx="253.28321"
       cy="883.2168"
       fx="253.28321"
       fy="883.2168"
       r="332.53321" />
  </defs>
  <sodipodi:namedview
     id="base"
     pagecolor="#ffffff"
     bordercolor="#666666"
     borderopacity="1.0"
     inkscape:pageopacity="0.0"
     inkscape:pageshadow="2"
     inkscape:zoom="0.70710678"
     inkscape:cx="628.44894"
     inkscape:cy="305.38438"
     inkscape:document-units="mm"
     inkscape:current-layer="layer1"
     showgrid="false"
     showborder="false"
     inkscape:showpageshadow="false"
     units="in"
     inkscape:pagecheckerboard="false"
     inkscape:snap-grids="false"
     inkscape:snap-to-guides="false"
     inkscape:snap-others="false"
     inkscape:snap-global="false"
     inkscape:window-width="1920"
     inkscape:window-height="1010"
     inkscape:window-x="0"
     inkscape:window-y="43"
     inkscape:window-maximized="1">
    <inkscape:grid
       type="xygrid"
       id="grid3680" />
  </sodipodi:namedview>
  <metadata
     id="metadata5">
    <rdf:RDF>
      <cc:Work
         rdf:about="">
        <dc:format>image/svg+xml</dc:format>
        <dc:type
           rdf:resource="http://purl.org/dc/dcmitype/StillImage" />
        <dc:title></dc:title>
      </cc:Work>
    </rdf:RDF>
  </metadata>
  <g
     inkscape:label="Layer 1"
     inkscape:groupmode="layer"
     id="layer1"
     transform="translate(0,-17.599992)">
    <g
       id="g5593"
       clip-path="url(#clipPath5595)"
       transform="translate(3.6191292,-3.1009788)">
      <g
         inkscape:label="Clip"
         id="g5591">
        <g
           transform="matrix(0.72066549,0.38932199,-0.4327448,0.59767188,43.138462,-82.240873)"
           inkscape:export-ydpi="96"
           inkscape:export-xdpi="96"
           id="g5554">
          <g
             transform="matrix(0.26529395,-0.008682,0.008682,0.26529395,151.69835,195.98437)"
             id="g4791"
             inkscape:transform-center-x="-19.618937"
             inkscape:transform-center-y="-97.485683">
            <g
               id="g4789">
              <path
                 inkscape:connector-curvature="0"
                 id="path4783"
                 d="m 301.59384,77.370627 c -22.06056,-0.54981 -42.49486,19.79237 -40.95703,42.042973 -0.60584,3.52997 1.97789,10.75892 -3.77149,9.92578 -17.85249,-1.01849 -38.00622,6.79007 -45.10546,24.36132 -9.98012,21.85761 2.91865,52.25646 27.48968,56.62785 6.76041,1.81302 14.09695,0.62884 20.68219,2.4288 0.12723,12.58308 1.8915,26.33556 9.91602,36.41406 13.30745,17.69717 41.00482,19.20147 57.83203,5.74805 12.30352,-8.67543 15.35635,-24.34053 15.19005,-38.45269 -0.91132,-7.15296 7.85389,-3.31458 11.94862,-4.64302 16.07909,-1.06212 32.11407,-10.53 37.54297,-26.27539 7.6394,-19.02008 -1.33909,-43.17101 -20.4336,-51.67773 -8.409,-4.10141 -18.06747,-5.29954 -27.29883,-4.08399 -4.16421,-2.70046 -0.46949,-8.19637 -1.67382,-12.34765 -1.02968,-19.843783 -17.15721,-39.490453 -38.01368,-39.994143 -1.11432,-0.0699 -2.23131,-0.0946 -3.34765,-0.0742 z"
                 style="opacity:0.75199998;fill:#000000;fill-opacity:1;stroke:none;stroke-width:1.19062495;stroke-linecap:round;stroke-linejoin:round;stroke-miterlimit:4;stroke-dasharray:none;filter:url(#filter4754)" />
              <path
                 inkscape:connector-curvature="0"
                 id="path4785"
                 d="m 297.67392,75.124527 c -21.9712,0.10524 -39.97936,21.76045 -37.60547,43.291023 -0.59816,2.91423 1.6168,7.46994 -0.80469,9.59961 -17.50069,-3.29661 -38.08465,3.02902 -46.75781,19.59375 -11.05746,19.30502 -1.73896,46.92582 19.21289,54.91406 8.95753,3.74949 18.88738,2.97612 28.36328,2.94922 -0.82778,14.63928 0.39706,31.42904 12.22266,41.76562 16.50941,16.54752 47.62426,12.95142 59.69457,-7.19057 7.10572,-9.98619 5.84017,-23.81069 6.69605,-34.48521 14.83472,0.90761 31.78765,-0.78946 41.94531,-13.02148 15.82614,-16.82018 11.79046,-47.32935 -8.23632,-59.11328 -9.9615,-6.89796 -23.61912,-5.63444 -34.18555,-6.49414 0.90719,-14.89178 -0.78304,-32.060403 -13.28516,-42.072273 -7.40421,-6.55943 -17.37835,-10.10612 -27.25976,-9.73633 z"
                 style="opacity:1;fill:#ffffff;fill-opacity:1;stroke:#000000;stroke-width:1.19062495;stroke-linecap:round;stroke-linejoin:round;stroke-miterlimit:4;stroke-dasharray:none" />
              <path
                 inkscape:connector-curvature="0"
                 id="path4787"
                 d="m 299.14198,79.098157 a 34.999998,34.999998 0 0 0 -34.99993,34.999933 34.999998,34.999998 0 0 0 0.0145,0.28835 h -0.0145 v 17.09922 h -17.09921 v 0.0103 a 34.999998,34.999998 0 0 0 -0.28835,-0.0103 34.999998,34.999998 0 0 0 -34.99993,34.99993 34.999998,34.999998 0 0 0 34.99993,34.99993 34.999998,34.999998 0 0 0 0.28835,-0.0145 v 0.0145 h 17.09921 v 17.09922 h 0.0145 a 34.999998,34.999998 0 0 0 -0.0145,0.28835 34.999998,34.999998 0 0 0 34.99993,34.99993 34.999998,34.999998 0 0 0 34.99993,-34.99993 34.999998,34.999998 0 0 0 -0.0103,-0.28835 h 0.0103 v -17.09922 h 17.09922 v -0.0145 a 34.999998,34.999998 0 0 0 0.28835,0.0145 34.999998,34.999998 0 0 0 34.99993,-34.99993 34.999998,34.999998 0 0 0 -34.99993,-34.99993 34.999998,34.999998 0 0 0 -0.28835,0.0103 v -0.0103 h -17.09922 v -17.09922 h -0.0103 a 34.999998,34.999998 0 0 0 0.0103,-0.28835 34.999998,34.999998 0 0 0 -34.99993,-34.999933 z"
                 style="opacity:1;fill:url(#radialGradient5611);fill-opacity:1;stroke:#5500d4;stroke-width:1.19062495;stroke-linecap:round;stroke-linejoin:round;stroke-miterlimit:4;stroke-dasharray:none" />
            </g>
          </g>
          <g
             id="g4767"
             transform="matrix(0.1229098,0.1717646,-0.1717646,0.1229098,223.94957,186.53009)">
            <g
               id="g4761">
              <path
                 style="opacity:0.75199998;fill:#000000;fill-opacity:1;stroke:none;stroke-width:1.19062495;stroke-linecap:round;stroke-linejoin:round;stroke-miterlimit:4;stroke-dasharray:none;filter:url(#filter4754)"
                 d="m 301.59384,77.370627 c -22.06056,-0.54981 -42.49486,19.79237 -40.95703,42.042973 -0.60584,3.52997 1.97789,10.75892 -3.77149,9.92578 -17.85249,-1.01849 -38.00622,6.79007 -45.10546,24.36132 -9.98012,21.85761 2.91865,52.25646 27.48968,56.62785 6.76041,1.81302 14.09695,0.62884 20.68219,2.4288 0.12723,12.58308 1.8915,26.33556 9.91602,36.41406 13.30745,17.69717 41.00482,19.20147 57.83203,5.74805 12.30352,-8.67543 15.35635,-24.34053 15.19005,-38.45269 -0.91132,-7.15296 7.85389,-3.31458 11.94862,-4.64302 16.07909,-1.06212 32.11407,-10.53 37.54297,-26.27539 7.6394,-19.02008 -1.33909,-43.17101 -20.4336,-51.67773 -8.409,-4.10141 -18.06747,-5.29954 -27.29883,-4.08399 -4.16421,-2.70046 -0.46949,-8.19637 -1.67382,-12.34765 -1.02968,-19.843783 -17.15721,-39.490453 -38.01368,-39.994143 -1.11432,-0.0699 -2.23131,-0.0946 -3.34765,-0.0742 z"
                 id="path4560"
                 inkscape:connector-curvature="0" />
              <path
                 style="opacity:1;fill:#ffffff;fill-opacity:1;stroke:#000000;stroke-width:1.19062495;stroke-linecap:round;stroke-linejoin:round;stroke-miterlimit:4;stroke-dasharray:none"
                 d="m 297.67392,75.124527 c -21.9712,0.10524 -39.97936,21.76045 -37.60547,43.291023 -0.59816,2.91423 1.6168,7.46994 -0.80469,9.59961 -17.50069,-3.29661 -38.08465,3.02902 -46.75781,19.59375 -11.05746,19.30502 -1.73896,46.92582 19.21289,54.91406 8.95753,3.74949 18.88738,2.97612 28.36328,2.94922 -0.82778,14.63928 0.39706,31.42904 12.22266,41.76562 16.50941,16.54752 47.62426,12.95142 59.69457,-7.19057 7.10572,-9.98619 5.84017,-23.81069 6.69605,-34.48521 14.83472,0.90761 31.78765,-0.78946 41.94531,-13.02148 15.82614,-16.82018 11.79046,-47.32935 -8.23632,-59.11328 -9.9615,-6.89796 -23.61912,-5.63444 -34.18555,-6.49414 0.90719,-14.89178 -0.78304,-32.060403 -13.28516,-42.072273 -7.40421,-6.55943 -17.37835,-10.10612 -27.25976,-9.73633 z"
                 id="path4538"
                 inkscape:connector-curvature="0" />
              <path
                 style="opacity:1;fill:url(#radialGradient5613);fill-opacity:1;stroke:#5500d4;stroke-width:1.19062495;stroke-linecap:round;stroke-linejoin:round;stroke-miterlimit:4;stroke-dasharray:none"
                 d="m 299.14198,79.098157 a 34.999998,34.999998 0 0 0 -34.99993,34.999933 34.999998,34.999998 0 0 0 0.0145,0.28835 h -0.0145 v 17.09922 h -17.09921 v 0.0103 a 34.999998,34.999998 0 0 0 -0.28835,-0.0103 34.999998,34.999998 0 0 0 -34.99993,34.99993 34.999998,34.999998 0 0 0 34.99993,34.99993 34.999998,34.999998 0 0 0 0.28835,-0.0145 v 0.0145 h 17.09921 v 17.09922 h 0.0145 a 34.999998,34.999998 0 0 0 -0.0145,0.28835 34.999998,34.999998 0 0 0 34.99993,34.99993 34.999998,34.999998 0 0 0 34.99993,-34.99993 34.999998,34.999998 0 0 0 -0.0103,-0.28835 h 0.0103 v -17.09922 h 17.09922 v -0.0145 a 34.999998,34.999998 0 0 0 0.28835,0.0145 34.999998,34.999998 0 0 0 34.99993,-34.99993 34.999998,34.999998 0 0 0 -34.99993,-34.99993 34.999998,34.999998 0 0 0 -0.28835,0.0103 v -0.0103 h -17.09922 v -17.09922 h -0.0103 a 34.999998,34.999998 0 0 0 0.0103,-0.28835 34.999998,34.999998 0 0 0 -34.99993,-34.999933 z"
                 id="rect4491"
                 inkscape:connector-curvature="0" />
            </g>
          </g>
          <g
             transform="matrix(0.06308759,0.16796269,-0.16796269,0.06308759,253.36966,209.57624)"
             id="g4779">
            <g
               id="g4777">
              <path
                 inkscape:connector-curvature="0"
                 id="path4771"
                 d="m 301.59384,77.370627 c -22.06056,-0.54981 -42.49486,19.79237 -40.95703,42.042973 -0.60584,3.52997 1.97789,10.75892 -3.77149,9.92578 -17.85249,-1.01849 -38.00622,6.79007 -45.10546,24.36132 -9.98012,21.85761 2.91865,52.25646 27.48968,56.62785 6.76041,1.81302 14.09695,0.62884 20.68219,2.4288 0.12723,12.58308 1.8915,26.33556 9.91602,36.41406 13.30745,17.69717 41.00482,19.20147 57.83203,5.74805 12.30352,-8.67543 15.35635,-24.34053 15.19005,-38.45269 -0.91132,-7.15296 7.85389,-3.31458 11.94862,-4.64302 16.07909,-1.06212 32.11407,-10.53 37.54297,-26.27539 7.6394,-19.02008 -1.33909,-43.17101 -20.4336,-51.67773 -8.409,-4.10141 -18.06747,-5.29954 -27.29883,-4.08399 -4.16421,-2.70046 -0.46949,-8.19637 -1.67382,-12.34765 -1.02968,-19.843783 -17.15721,-39.490453 -38.01368,-39.994143 -1.11432,-0.0699 -2.23131,-0.0946 -3.34765,-0.0742 z"
                 style="opacity:0.75199998;fill:#000000;fill-opacity:1;stroke:none;stroke-width:1.19062495;stroke-linecap:round;stroke-linejoin:round;stroke-miterlimit:4;stroke-dasharray:none;filter:url(#filter4754)" />
              <path
                 inkscape:connector-curvature="0"
                 id="path4773"
                 d="m 297.67392,75.124527 c -21.9712,0.10524 -39.97936,21.76045 -37.60547,43.291023 -0.59816,2.91423 1.6168,7.46994 -0.80469,9.59961 -17.50069,-3.29661 -38.08465,3.02902 -46.75781,19.59375 -11.05746,19.30502 -1.73896,46.92582 19.21289,54.91406 8.95753,3.74949 18.88738,2.97612 28.36328,2.94922 -0.82778,14.63928 0.39706,31.42904 12.22266,41.76562 16.50941,16.54752 47.62426,12.95142 59.69457,-7.19057 7.10572,-9.98619 5.84017,-23.81069 6.69605,-34.48521 14.83472,0.90761 31.78765,-0.78946 41.94531,-13.02148 15.82614,-16.82018 11.79046,-47.32935 -8.23632,-59.11328 -9.9615,-6.89796 -23.61912,-5.63444 -34.18555,-6.49414 0.90719,-14.89178 -0.78304,-32.060403 -13.28516,-42.072273 -7.40421,-6.55943 -17.37835,-10.10612 -27.25976,-9.73633 z"
                 style="opacity:1;fill:#ffffff;fill-opacity:1;stroke:#000000;stroke-width:1.19062495;stroke-linecap:round;stroke-linejoin:round;stroke-miterlimit:4;stroke-dasharray:none" />
              <path
                 inkscape:connector-curvature="0"
                 id="path4775"
                 d="m 299.14198,79.098157 a 34.999998,34.999998 0 0 0 -34.99993,34.999933 34.999998,34.999998 0 0 0 0.0145,0.28835 h -0.0145 v 17.09922 h -17.09921 v 0.0103 a 34.999998,34.999998 0 0 0 -0.28835,-0.0103 34.999998,34.999998 0 0 0 -34.99993,34.99993 34.999998,34.999998 0 0 0 34.99993,34.99993 34.999998,34.999998 0 0 0 0.28835,-0.0145 v 0.0145 h 17.09921 v 17.09922 h 0.0145 a 34.999998,34.999998 0 0 0 -0.0145,0.28835 34.999998,34.999998 0 0 0 34.99993,34.99993 34.999998,34.999998 0 0 0 34.99993,-34.99993 34.999998,34.999998 0 0 0 -0.0103,-0.28835 h 0.0103 v -17.09922 h 17.09922 v -0.0145 a 34.999998,34.999998 0 0 0 0.28835,0.0145 34.999998,34.999998 0 0 0 34.99993,-34.99993 34.999998,34.999998 0 0 0 -34.99993,-34.99993 34.999998,34.999998 0 0 0 -0.28835,0.0103 v -0.0103 h -17.09922 v -17.09922 h -0.0103 a 34.999998,34.999998 0 0 0 0.0103,-0.28835 34.999998,34.999998 0 0 0 -34.99993,-34.999933 z"
                 style="opacity:1;fill:url(#radialGradient5615);fill-opacity:1;stroke:#5500d4;stroke-width:1.19062495;stroke-linecap:round;stroke-linejoin:round;stroke-miterlimit:4;stroke-dasharray:none" />
            </g>
          </g>
        </g>
      </g>
    </g>
  </g>
</svg>
